<?xml version="1.0" standalone="no"?><!DOCTYPE svg PUBLIC "-//W3C//DTD SVG 1.1//EN" "http://www.w3.org/Graphics/SVG/1.1/DTD/svg11.dtd"><svg class="icon" width="200px" height="200.00px" viewBox="0 0 1024 1024" version="1.1" xmlns="http://www.w3.org/2000/svg"><path d="M769.4336 136.3456H267.4176a177.3568 177.3568 0 0 0-173.568 173.568v347.0848a177.3568 177.3568 0 0 0 173.568 173.568h18.5856a6.0928 6.0928 0 0 0 6.1952 6.1952l68.1984 74.3936c12.3904 12.3904 30.976 12.3904 37.1712 0l62.0032-68.1984 6.1952-6.1952h303.7184a177.3568 177.3568 0 0 0 173.568-173.568v-353.28a177.3568 177.3568 0 0 0-173.6192-173.568z m-489.6256 415.2832a63.6928 63.6928 0 0 1-62.0032-68.1984A68.8128 68.8128 0 0 1 286.0032 415.232a68.7616 68.7616 0 0 1 68.1984 68.1984 79.2064 79.2064 0 0 1-74.3936 68.1984z m235.52 0a68.7616 68.7616 0 0 1-68.1984-68.1984 68.7616 68.7616 0 0 1 68.1984-68.1984 68.7616 68.7616 0 0 1 68.1984 68.1984 68.7616 68.7616 0 0 1-68.1984 68.1984z m241.7152 0a68.7616 68.7616 0 0 1-68.1984-68.1984 68.7616 68.7616 0 0 1 68.1984-68.1984 68.7616 68.7616 0 0 1 68.1984 68.1984 78.6432 78.6432 0 0 1-68.1984 68.1984z m0 0" fill="#333333" /></svg>