<?xml version="1.0" standalone="no"?><!DOCTYPE svg PUBLIC "-//W3C//DTD SVG 1.1//EN" "http://www.w3.org/Graphics/SVG/1.1/DTD/svg11.dtd"><svg class="icon" width="200px" height="185.17px" viewBox="0 0 1106 1024" version="1.1" xmlns="http://www.w3.org/2000/svg"><path d="M1101.64877 20.397861C883.925561-12.507037 702.212107-1.05138 557.242182 28.474866h-0.032856c-209.564064 56.774503-216.655401 221.972535-217.569882 220.001198l-7.091337-149.175444C81.04385 217.082524 13.761027 363.04907 2.716064 476.926631c-9.084578 116.018652 38.057754 199.948321 60.804792 243.098695C186.050396 496.240257 495.58862 247.731337 747.580235 129.927529c-6.658738 4.030289-13.432471 8.213904-20.419764 12.589177a1883.995722 1883.995722 0 0 1 23.332962-14.062203c43.172278-21.810652 83.436834-40.63692 118.373305-56.643081 80.939807-37.532064 134.034481-55.635508 133.842823-55.799786 0.17523 0.169754-52.875636 18.870075-133.842823 55.799786-56.785455 26.415914-127.080043 62.896599-200.90661 109.644664a1633.964492 1633.964492 0 0 1 59.205819-38.93938 1964.196278 1964.196278 0 0 0-102.087872 66.959743C496.716663 295.415786 365.151829 412.381775 265.336471 542.966417c-123.652107 152.165305-199.077647 311.799786-220.138097 409.156449-8.306995 37.931807 12.698695 61.801412 22.155637 66.707851 41.671872 21.482096 44.667209-32.724193 44.941005-32.861091 10.44261-69.730567 30.763807-143.015016 60.832171-216.162567 264.83816-7.715594 429.992385-87.275465 573.171679-210.369027-48.50584 4.900963-102.744984 3.882439-189.516663-32.455872 2.102759-2.277989 200.52877 27.85061 317.461904-99.12539v0.005476c159.459251-187.687701 230.011209-406.100877 227.404663-407.464385z" fill="#35947F" /></svg>